<mxfile host="app.diagrams.net" agent="Mozilla/5.0 (X11; Ubuntu; Linux x86_64; rv:130.0) Gecko/20100101 Firefox/130.0" version="24.7.7">
  <diagram name="Page-1" id="uPhx6uB5De-v4-h4SkFl">
    <mxGraphModel dx="1061" dy="586" grid="1" gridSize="10" guides="1" tooltips="1" connect="1" arrows="1" fold="1" page="1" pageScale="1" pageWidth="1100" pageHeight="850" math="0" shadow="0">
      <root>
        <mxCell id="0" />
        <mxCell id="1" parent="0" />
        <mxCell id="Ebw7YvS8BEwTWqcTJb2T-1" value="" style="rounded=0;whiteSpace=wrap;html=1;fillColor=default;strokeColor=default;perimeterSpacing=2;" vertex="1" parent="1">
          <mxGeometry x="195" y="180" width="930" height="470" as="geometry" />
        </mxCell>
        <mxCell id="Ebw7YvS8BEwTWqcTJb2T-30" style="edgeStyle=orthogonalEdgeStyle;rounded=0;orthogonalLoop=1;jettySize=auto;html=1;entryX=0;entryY=0.25;entryDx=0;entryDy=0;" edge="1" parent="1" source="Ebw7YvS8BEwTWqcTJb2T-3" target="Ebw7YvS8BEwTWqcTJb2T-7">
          <mxGeometry relative="1" as="geometry">
            <Array as="points">
              <mxPoint x="160" y="260" />
              <mxPoint x="160" y="390" />
            </Array>
          </mxGeometry>
        </mxCell>
        <mxCell id="Ebw7YvS8BEwTWqcTJb2T-3" value="&lt;div&gt;Visitor &lt;br&gt;&lt;/div&gt;" style="verticalLabelPosition=bottom;shadow=0;dashed=0;align=center;html=1;verticalAlign=top;strokeWidth=1;shape=mxgraph.mockup.containers.userMale;strokeColor=#666666;strokeColor2=#008cff;" vertex="1" parent="1">
          <mxGeometry x="24" y="210" width="100" height="100" as="geometry" />
        </mxCell>
        <mxCell id="Ebw7YvS8BEwTWqcTJb2T-32" style="edgeStyle=orthogonalEdgeStyle;rounded=0;orthogonalLoop=1;jettySize=auto;html=1;entryX=0.5;entryY=0;entryDx=0;entryDy=0;jumpStyle=arc;startArrow=classic;startFill=1;endArrow=classic;endFill=1;" edge="1" parent="1" source="Ebw7YvS8BEwTWqcTJb2T-4" target="Ebw7YvS8BEwTWqcTJb2T-24">
          <mxGeometry relative="1" as="geometry">
            <Array as="points">
              <mxPoint x="160" y="601" />
              <mxPoint x="160" y="470" />
              <mxPoint x="230" y="470" />
              <mxPoint x="230" y="240" />
              <mxPoint x="660" y="240" />
            </Array>
          </mxGeometry>
        </mxCell>
        <mxCell id="Ebw7YvS8BEwTWqcTJb2T-53" value="&lt;div&gt;&lt;span style=&quot;background-color: rgb(51, 255, 51);&quot;&gt;Approve Pull Request&lt;/span&gt;&lt;/div&gt;" style="edgeLabel;html=1;align=center;verticalAlign=middle;resizable=0;points=[];" vertex="1" connectable="0" parent="Ebw7YvS8BEwTWqcTJb2T-32">
          <mxGeometry x="0.3942" y="-3" relative="1" as="geometry">
            <mxPoint x="-1" y="-13" as="offset" />
          </mxGeometry>
        </mxCell>
        <mxCell id="Ebw7YvS8BEwTWqcTJb2T-4" value="Admin" style="sketch=0;outlineConnect=0;fontColor=#232F3E;gradientColor=none;fillColor=#232F3D;strokeColor=none;dashed=0;verticalLabelPosition=bottom;verticalAlign=top;align=center;html=1;fontSize=12;fontStyle=0;aspect=fixed;pointerEvents=1;shape=mxgraph.aws4.authenticated_user;" vertex="1" parent="1">
          <mxGeometry x="30" y="562" width="78" height="78" as="geometry" />
        </mxCell>
        <mxCell id="Ebw7YvS8BEwTWqcTJb2T-31" style="edgeStyle=orthogonalEdgeStyle;rounded=0;orthogonalLoop=1;jettySize=auto;html=1;jumpStyle=arc;" edge="1" parent="1" source="Ebw7YvS8BEwTWqcTJb2T-5" target="Ebw7YvS8BEwTWqcTJb2T-7">
          <mxGeometry relative="1" as="geometry">
            <Array as="points">
              <mxPoint x="160" y="440" />
              <mxPoint x="160" y="405" />
            </Array>
          </mxGeometry>
        </mxCell>
        <mxCell id="Ebw7YvS8BEwTWqcTJb2T-5" value="&lt;div&gt;Developer&lt;/div&gt;" style="html=1;verticalLabelPosition=bottom;align=center;labelBackgroundColor=#ffffff;verticalAlign=top;strokeWidth=2;strokeColor=#0080F0;shadow=0;dashed=0;shape=mxgraph.ios7.icons.user;" vertex="1" parent="1">
          <mxGeometry x="24" y="390" width="90" height="100" as="geometry" />
        </mxCell>
        <mxCell id="Ebw7YvS8BEwTWqcTJb2T-2" value="" style="verticalLabelPosition=bottom;html=1;verticalAlign=top;align=center;strokeColor=none;fillColor=#00BEF2;shape=mxgraph.azure.github_code;pointerEvents=1;" vertex="1" parent="1">
          <mxGeometry x="210" y="180" width="50" height="50" as="geometry" />
        </mxCell>
        <mxCell id="Ebw7YvS8BEwTWqcTJb2T-35" style="edgeStyle=orthogonalEdgeStyle;rounded=0;orthogonalLoop=1;jettySize=auto;html=1;entryX=0;entryY=0.5;entryDx=0;entryDy=0;" edge="1" parent="1" source="Ebw7YvS8BEwTWqcTJb2T-7" target="Ebw7YvS8BEwTWqcTJb2T-9">
          <mxGeometry relative="1" as="geometry" />
        </mxCell>
        <mxCell id="Ebw7YvS8BEwTWqcTJb2T-7" value="Main Branch " style="shape=image;html=1;verticalAlign=top;verticalLabelPosition=bottom;labelBackgroundColor=#ffffff;imageAspect=0;aspect=fixed;image=https://cdn0.iconfinder.com/data/icons/phosphor-fill-vol-3/256/git-branch-fill-128.png;imageBackground=#000000;" vertex="1" parent="1">
          <mxGeometry x="260" y="375" width="60" height="60" as="geometry" />
        </mxCell>
        <mxCell id="Ebw7YvS8BEwTWqcTJb2T-38" value="" style="edgeStyle=orthogonalEdgeStyle;rounded=0;orthogonalLoop=1;jettySize=auto;html=1;" edge="1" parent="1" source="Ebw7YvS8BEwTWqcTJb2T-8" target="Ebw7YvS8BEwTWqcTJb2T-23">
          <mxGeometry relative="1" as="geometry" />
        </mxCell>
        <mxCell id="Ebw7YvS8BEwTWqcTJb2T-8" value="Release Branch" style="shape=image;html=1;verticalAlign=top;verticalLabelPosition=bottom;labelBackgroundColor=#ffffff;imageAspect=0;aspect=fixed;image=https://cdn0.iconfinder.com/data/icons/phosphor-fill-vol-3/256/git-branch-fill-128.png;imageBackground=#000000;" vertex="1" parent="1">
          <mxGeometry x="390" y="250" width="60" height="60" as="geometry" />
        </mxCell>
        <mxCell id="Ebw7YvS8BEwTWqcTJb2T-36" value="" style="edgeStyle=orthogonalEdgeStyle;rounded=0;orthogonalLoop=1;jettySize=auto;html=1;" edge="1" parent="1" source="Ebw7YvS8BEwTWqcTJb2T-9" target="Ebw7YvS8BEwTWqcTJb2T-8">
          <mxGeometry relative="1" as="geometry" />
        </mxCell>
        <mxCell id="Ebw7YvS8BEwTWqcTJb2T-37" value="" style="edgeStyle=orthogonalEdgeStyle;rounded=0;orthogonalLoop=1;jettySize=auto;html=1;" edge="1" parent="1" source="Ebw7YvS8BEwTWqcTJb2T-9" target="Ebw7YvS8BEwTWqcTJb2T-11">
          <mxGeometry relative="1" as="geometry" />
        </mxCell>
        <mxCell id="Ebw7YvS8BEwTWqcTJb2T-54" value="&lt;span style=&quot;background-color: rgb(51, 255, 51);&quot;&gt;Git Push&lt;/span&gt;" style="edgeLabel;html=1;align=center;verticalAlign=middle;resizable=0;points=[];" vertex="1" connectable="0" parent="Ebw7YvS8BEwTWqcTJb2T-37">
          <mxGeometry x="0.0789" y="2" relative="1" as="geometry">
            <mxPoint x="18" as="offset" />
          </mxGeometry>
        </mxCell>
        <mxCell id="Ebw7YvS8BEwTWqcTJb2T-43" value="" style="edgeStyle=orthogonalEdgeStyle;rounded=0;orthogonalLoop=1;jettySize=auto;html=1;" edge="1" parent="1" source="Ebw7YvS8BEwTWqcTJb2T-9" target="Ebw7YvS8BEwTWqcTJb2T-42">
          <mxGeometry relative="1" as="geometry" />
        </mxCell>
        <mxCell id="Ebw7YvS8BEwTWqcTJb2T-9" value="Develop Branch" style="shape=image;html=1;verticalAlign=top;verticalLabelPosition=bottom;labelBackgroundColor=#ffffff;imageAspect=0;aspect=fixed;image=https://cdn0.iconfinder.com/data/icons/phosphor-fill-vol-3/256/git-branch-fill-128.png;imageBackground=#000000;" vertex="1" parent="1">
          <mxGeometry x="390" y="375" width="60" height="60" as="geometry" />
        </mxCell>
        <mxCell id="Ebw7YvS8BEwTWqcTJb2T-48" style="edgeStyle=orthogonalEdgeStyle;rounded=0;orthogonalLoop=1;jettySize=auto;html=1;jumpStyle=arc;entryX=0;entryY=0;entryDx=87;entryDy=42;entryPerimeter=0;" edge="1" parent="1" source="Ebw7YvS8BEwTWqcTJb2T-11" target="Ebw7YvS8BEwTWqcTJb2T-42">
          <mxGeometry relative="1" as="geometry">
            <Array as="points">
              <mxPoint x="607" y="532" />
            </Array>
          </mxGeometry>
        </mxCell>
        <mxCell id="Ebw7YvS8BEwTWqcTJb2T-55" value="&lt;span style=&quot;background-color: rgb(51, 255, 51);&quot;&gt;Commit &lt;/span&gt;" style="edgeLabel;html=1;align=center;verticalAlign=middle;resizable=0;points=[];" vertex="1" connectable="0" parent="Ebw7YvS8BEwTWqcTJb2T-48">
          <mxGeometry x="-0.2756" y="-1" relative="1" as="geometry">
            <mxPoint x="-8" y="-13" as="offset" />
          </mxGeometry>
        </mxCell>
        <mxCell id="Ebw7YvS8BEwTWqcTJb2T-11" value="Features Branch" style="shape=image;html=1;verticalAlign=top;verticalLabelPosition=bottom;labelBackgroundColor=#ffffff;imageAspect=0;aspect=fixed;image=https://cdn0.iconfinder.com/data/icons/phosphor-fill-vol-3/256/git-branch-fill-128.png;imageBackground=#000000;" vertex="1" parent="1">
          <mxGeometry x="390" y="502" width="60" height="60" as="geometry" />
        </mxCell>
        <mxCell id="Ebw7YvS8BEwTWqcTJb2T-20" value="Release Branch Updated" style="shape=image;html=1;verticalAlign=top;verticalLabelPosition=bottom;labelBackgroundColor=#ffffff;imageAspect=0;aspect=fixed;image=https://cdn0.iconfinder.com/data/icons/phosphor-fill-vol-3/256/git-branch-fill-128.png;imageBackground=#000000;" vertex="1" parent="1">
          <mxGeometry x="870" y="250" width="60" height="60" as="geometry" />
        </mxCell>
        <mxCell id="Ebw7YvS8BEwTWqcTJb2T-49" style="edgeStyle=orthogonalEdgeStyle;rounded=0;orthogonalLoop=1;jettySize=auto;html=1;" edge="1" parent="1" source="Ebw7YvS8BEwTWqcTJb2T-21" target="Ebw7YvS8BEwTWqcTJb2T-23">
          <mxGeometry relative="1" as="geometry">
            <Array as="points">
              <mxPoint x="900" y="340" />
              <mxPoint x="540" y="340" />
            </Array>
          </mxGeometry>
        </mxCell>
        <mxCell id="Ebw7YvS8BEwTWqcTJb2T-21" value="" style="shape=image;html=1;verticalAlign=top;verticalLabelPosition=bottom;labelBackgroundColor=#ffffff;imageAspect=0;aspect=fixed;image=https://cdn0.iconfinder.com/data/icons/phosphor-fill-vol-3/256/git-branch-fill-128.png;imageBackground=#000000;" vertex="1" parent="1">
          <mxGeometry x="870" y="375" width="60" height="60" as="geometry" />
        </mxCell>
        <mxCell id="Ebw7YvS8BEwTWqcTJb2T-22" value="" style="shape=image;html=1;verticalAlign=top;verticalLabelPosition=bottom;labelBackgroundColor=#ffffff;imageAspect=0;aspect=fixed;image=https://cdn0.iconfinder.com/data/icons/phosphor-fill-vol-3/256/git-branch-fill-128.png;imageBackground=#000000;" vertex="1" parent="1">
          <mxGeometry x="870" y="502" width="60" height="60" as="geometry" />
        </mxCell>
        <mxCell id="Ebw7YvS8BEwTWqcTJb2T-39" value="" style="edgeStyle=orthogonalEdgeStyle;rounded=0;orthogonalLoop=1;jettySize=auto;html=1;" edge="1" parent="1" source="Ebw7YvS8BEwTWqcTJb2T-23" target="Ebw7YvS8BEwTWqcTJb2T-24">
          <mxGeometry relative="1" as="geometry" />
        </mxCell>
        <mxCell id="Ebw7YvS8BEwTWqcTJb2T-23" value="Commit" style="shape=image;html=1;verticalAlign=top;verticalLabelPosition=bottom;labelBackgroundColor=#ffffff;imageAspect=0;aspect=fixed;image=https://cdn0.iconfinder.com/data/icons/octicons/1024/git-commit-128.png;imageBackground=#000000;" vertex="1" parent="1">
          <mxGeometry x="510" y="250" width="60" height="60" as="geometry" />
        </mxCell>
        <mxCell id="Ebw7YvS8BEwTWqcTJb2T-40" value="" style="edgeStyle=orthogonalEdgeStyle;rounded=0;orthogonalLoop=1;jettySize=auto;html=1;" edge="1" parent="1" source="Ebw7YvS8BEwTWqcTJb2T-24" target="Ebw7YvS8BEwTWqcTJb2T-25">
          <mxGeometry relative="1" as="geometry" />
        </mxCell>
        <mxCell id="Ebw7YvS8BEwTWqcTJb2T-24" value="Pull Request" style="shape=image;html=1;verticalAlign=top;verticalLabelPosition=bottom;labelBackgroundColor=#ffffff;imageAspect=0;aspect=fixed;image=https://cdn0.iconfinder.com/data/icons/phosphor-bold-vol-3-1/256/git-pull-request-duotone-128.png;imageBackground=#000000;" vertex="1" parent="1">
          <mxGeometry x="630" y="250" width="60" height="60" as="geometry" />
        </mxCell>
        <mxCell id="Ebw7YvS8BEwTWqcTJb2T-41" value="" style="edgeStyle=orthogonalEdgeStyle;rounded=0;orthogonalLoop=1;jettySize=auto;html=1;" edge="1" parent="1" source="Ebw7YvS8BEwTWqcTJb2T-25" target="Ebw7YvS8BEwTWqcTJb2T-20">
          <mxGeometry relative="1" as="geometry" />
        </mxCell>
        <mxCell id="Ebw7YvS8BEwTWqcTJb2T-25" value="Merge" style="shape=image;html=1;verticalAlign=top;verticalLabelPosition=bottom;labelBackgroundColor=#ffffff;imageAspect=0;aspect=fixed;image=https://cdn0.iconfinder.com/data/icons/phosphor-fill-vol-3/256/git-merge-fill-128.png;imageBackground=#000000;" vertex="1" parent="1">
          <mxGeometry x="750" y="250" width="60" height="60" as="geometry" />
        </mxCell>
        <mxCell id="Ebw7YvS8BEwTWqcTJb2T-50" style="edgeStyle=orthogonalEdgeStyle;rounded=0;orthogonalLoop=1;jettySize=auto;html=1;entryX=1;entryY=0.5;entryDx=0;entryDy=0;" edge="1" parent="1" source="Ebw7YvS8BEwTWqcTJb2T-26" target="Ebw7YvS8BEwTWqcTJb2T-20">
          <mxGeometry relative="1" as="geometry">
            <Array as="points">
              <mxPoint x="1470" y="280" />
            </Array>
          </mxGeometry>
        </mxCell>
        <mxCell id="Ebw7YvS8BEwTWqcTJb2T-51" value="&lt;span style=&quot;background-color: rgb(102, 255, 102);&quot;&gt;Git Clone&lt;/span&gt;" style="edgeLabel;html=1;align=center;verticalAlign=middle;resizable=0;points=[];imageWidth=24;imageHeight=29;" vertex="1" connectable="0" parent="Ebw7YvS8BEwTWqcTJb2T-50">
          <mxGeometry x="0.05" relative="1" as="geometry">
            <mxPoint y="-8" as="offset" />
          </mxGeometry>
        </mxCell>
        <mxCell id="Ebw7YvS8BEwTWqcTJb2T-26" value="" style="image;html=1;image=img/lib/clip_art/computers/Server_Rack_128x128.png" vertex="1" parent="1">
          <mxGeometry x="1350" y="30" width="240" height="220" as="geometry" />
        </mxCell>
        <mxCell id="Ebw7YvS8BEwTWqcTJb2T-46" style="edgeStyle=orthogonalEdgeStyle;rounded=0;orthogonalLoop=1;jettySize=auto;html=1;entryX=1;entryY=0.25;entryDx=0;entryDy=0;" edge="1" parent="1" source="Ebw7YvS8BEwTWqcTJb2T-27" target="Ebw7YvS8BEwTWqcTJb2T-26">
          <mxGeometry relative="1" as="geometry">
            <Array as="points">
              <mxPoint x="1660" y="320" />
              <mxPoint x="1660" y="85" />
            </Array>
          </mxGeometry>
        </mxCell>
        <mxCell id="Ebw7YvS8BEwTWqcTJb2T-52" value="&lt;div&gt;&lt;span style=&quot;background-color: rgb(51, 255, 51);&quot;&gt;Getting your services &lt;/span&gt;&lt;br&gt;&lt;/div&gt;" style="edgeLabel;html=1;align=center;verticalAlign=middle;resizable=0;points=[];" vertex="1" connectable="0" parent="Ebw7YvS8BEwTWqcTJb2T-46">
          <mxGeometry x="-0.4833" y="3" relative="1" as="geometry">
            <mxPoint y="-13" as="offset" />
          </mxGeometry>
        </mxCell>
        <mxCell id="Ebw7YvS8BEwTWqcTJb2T-27" value="" style="verticalLabelPosition=bottom;shadow=0;dashed=0;align=center;html=1;verticalAlign=top;strokeWidth=1;shape=mxgraph.mockup.containers.userMale;strokeColor=#666666;strokeColor2=#008cff;" vertex="1" parent="1">
          <mxGeometry x="1910" y="270" width="100" height="100" as="geometry" />
        </mxCell>
        <mxCell id="Ebw7YvS8BEwTWqcTJb2T-47" style="edgeStyle=orthogonalEdgeStyle;rounded=0;orthogonalLoop=1;jettySize=auto;html=1;entryX=0.75;entryY=1;entryDx=0;entryDy=0;" edge="1" parent="1" source="Ebw7YvS8BEwTWqcTJb2T-28" target="Ebw7YvS8BEwTWqcTJb2T-26">
          <mxGeometry relative="1" as="geometry" />
        </mxCell>
        <mxCell id="Ebw7YvS8BEwTWqcTJb2T-28" value="" style="html=1;verticalLabelPosition=bottom;align=center;labelBackgroundColor=#ffffff;verticalAlign=top;strokeWidth=2;strokeColor=#0080F0;shadow=0;dashed=0;shape=mxgraph.ios7.icons.user;" vertex="1" parent="1">
          <mxGeometry x="1910" y="510" width="90" height="100" as="geometry" />
        </mxCell>
        <mxCell id="Ebw7YvS8BEwTWqcTJb2T-44" value="" style="edgeStyle=orthogonalEdgeStyle;rounded=0;orthogonalLoop=1;jettySize=auto;html=1;" edge="1" parent="1" source="Ebw7YvS8BEwTWqcTJb2T-42" target="Ebw7YvS8BEwTWqcTJb2T-21">
          <mxGeometry relative="1" as="geometry" />
        </mxCell>
        <mxCell id="Ebw7YvS8BEwTWqcTJb2T-42" value="" style="shape=singleArrow;whiteSpace=wrap;html=1;arrowWidth=0.4;arrowSize=0.4;verticalAlign=top;labelBackgroundColor=#ffffff;" vertex="1" parent="1">
          <mxGeometry x="520" y="375" width="290" height="60" as="geometry" />
        </mxCell>
        <mxCell id="Ebw7YvS8BEwTWqcTJb2T-56" value="&lt;span style=&quot;background-color: rgb(51, 255, 51);&quot;&gt;Pull Request Pipeline&lt;/span&gt;" style="text;html=1;align=center;verticalAlign=middle;whiteSpace=wrap;rounded=0;" vertex="1" parent="1">
          <mxGeometry x="570" y="400" width="170" height="10" as="geometry" />
        </mxCell>
      </root>
    </mxGraphModel>
  </diagram>
</mxfile>
